<svg xmlns="http://www.w3.org/2000/svg" width="1024" height="1024" viewBox="0 0 1024 1024" role="img" aria-label="Blue Snake Studio artwork">

  <defs>
    <radialGradient id="goldGlow" cx="50%" cy="45%" r="60%">
      <stop offset="0%" stop-color="#fff0a8" stop-opacity="0.75"/>
      <stop offset="35%" stop-color="#d4af37" stop-opacity="0.45"/>
      <stop offset="100%" stop-color="#d4af37" stop-opacity="0"/>
    </radialGradient>
    <linearGradient id="deep" x1="0" x2="1" y1="0" y2="1">
      <stop offset="0%" stop-color="#071020"/>
      <stop offset="48%" stop-color="#0f1a3d"/>
      <stop offset="100%" stop-color="#05060a"/>
    </linearGradient>
    <linearGradient id="blueGold" x1="0" x2="1" y1="0" y2="1">
      <stop offset="0%" stop-color="#63d6ff" stop-opacity="0.95"/>
      <stop offset="55%" stop-color="#d4af37" stop-opacity="0.95"/>
      <stop offset="100%" stop-color="#00ff41" stop-opacity="0.72"/>
    </linearGradient>
    <filter id="softShadow" x="-20%" y="-20%" width="140%" height="140%">
      <feDropShadow dx="0" dy="20" stdDeviation="24" flood-color="#000000" flood-opacity="0.45"/>
    </filter>
    <pattern id="grid" width="48" height="48" patternUnits="userSpaceOnUse">
      <path d="M48 0H0V48" fill="none" stroke="#f5f1e8" stroke-opacity="0.08" stroke-width="1"/>
    </pattern>
  </defs>

  <rect width="1024" height="1024" fill="url(#deep)"/>
  <rect width="1024" height="1024" fill="url(#grid)"/>
  
  <circle cx="512" cy="420" r="330" fill="url(#goldGlow)" opacity="0.8"/>
  <g filter="url(#softShadow)">
    <path d="M314 620 C350 370 522 210 718 230 C656 280 652 354 704 420 C610 392 532 430 474 518 C424 596 374 638 314 620Z" fill="#f5f1e8" opacity="0.95"/>
    <path d="M444 570 C520 470 648 462 770 526 C640 540 578 620 546 752 C512 660 464 612 444 570Z" fill="#d4af37"/>
    <path d="M690 265 C804 330 844 450 786 574" fill="none" stroke="#63d6ff" stroke-width="22" stroke-linecap="round" opacity="0.7"/>
    <circle cx="602" cy="338" r="16" fill="#05060a"/>
    <path d="M640 330 L752 300 L664 380 Z" fill="#d4af37"/>
    <path d="M375 650 C420 790 558 824 700 778" fill="none" stroke="#00ff41" stroke-width="10" stroke-linecap="round" opacity="0.6"/>
  </g>
  <text x="512" y="880" text-anchor="middle" font-family="Georgia, serif" font-size="70" font-weight="900" fill="#f5f1e8">AURALIA</text>
  <text x="512" y="925" text-anchor="middle" font-family="monospace" font-size="22" fill="#d4af37" letter-spacing="7">GOLD ON BLUE · GUIDE MARK</text>

</svg>