<svg xmlns="http://www.w3.org/2000/svg" width="1024" height="1024" viewBox="0 0 1024 1024" role="img" aria-label="Blue Snake Studio artwork">

  <defs>
    <radialGradient id="goldGlow" cx="50%" cy="45%" r="60%">
      <stop offset="0%" stop-color="#fff0a8" stop-opacity="0.75"/>
      <stop offset="35%" stop-color="#d4af37" stop-opacity="0.45"/>
      <stop offset="100%" stop-color="#d4af37" stop-opacity="0"/>
    </radialGradient>
    <linearGradient id="deep" x1="0" x2="1" y1="0" y2="1">
      <stop offset="0%" stop-color="#071020"/>
      <stop offset="48%" stop-color="#0f1a3d"/>
      <stop offset="100%" stop-color="#05060a"/>
    </linearGradient>
    <linearGradient id="blueGold" x1="0" x2="1" y1="0" y2="1">
      <stop offset="0%" stop-color="#63d6ff" stop-opacity="0.95"/>
      <stop offset="55%" stop-color="#d4af37" stop-opacity="0.95"/>
      <stop offset="100%" stop-color="#00ff41" stop-opacity="0.72"/>
    </linearGradient>
    <filter id="softShadow" x="-20%" y="-20%" width="140%" height="140%">
      <feDropShadow dx="0" dy="20" stdDeviation="24" flood-color="#000000" flood-opacity="0.45"/>
    </filter>
    <pattern id="grid" width="48" height="48" patternUnits="userSpaceOnUse">
      <path d="M48 0H0V48" fill="none" stroke="#f5f1e8" stroke-opacity="0.08" stroke-width="1"/>
    </pattern>
  </defs>

  <rect width="1024" height="1024" fill="url(#deep)"/>
  <rect width="1024" height="1024" fill="url(#grid)"/>
  
  <circle cx="512" cy="458" r="292" fill="url(#goldGlow)" opacity="0.7"/>
  <path d="M168 554 C310 404 392 336 512 468 C632 336 714 404 856 554 C690 534 596 574 512 720 C428 574 334 534 168 554Z" fill="#05060a" stroke="#d4af37" stroke-width="8" filter="url(#softShadow)"/>
  <path d="M512 468 C480 372 412 336 318 322 C402 290 470 306 512 388 C554 306 622 290 706 322 C612 336 544 372 512 468Z" fill="#0f1a3d" stroke="#63d6ff" stroke-opacity="0.5" stroke-width="5"/>
  <circle cx="468" cy="450" r="10" fill="#00ff41"/><circle cx="556" cy="450" r="10" fill="#00ff41"/>
  <path d="M320 634 Q512 768 704 634" fill="none" stroke="#d4af37" stroke-width="6" stroke-linecap="round" opacity="0.7"/>
  <text x="512" y="830" text-anchor="middle" font-family="Georgia, serif" font-size="62" font-weight="900" fill="#f5f1e8">BLACK WING CREW</text>
  <text x="512" y="878" text-anchor="middle" font-family="monospace" font-size="21" fill="#d4af37" letter-spacing="5">NEON VENOM · OMEN CHANT</text>

</svg>