<svg xmlns="http://www.w3.org/2000/svg" width="1024" height="1024" viewBox="0 0 1024 1024" role="img" aria-label="Blue Snake Studio artwork">

  <defs>
    <radialGradient id="goldGlow" cx="50%" cy="45%" r="60%">
      <stop offset="0%" stop-color="#fff0a8" stop-opacity="0.75"/>
      <stop offset="35%" stop-color="#d4af37" stop-opacity="0.45"/>
      <stop offset="100%" stop-color="#d4af37" stop-opacity="0"/>
    </radialGradient>
    <linearGradient id="deep" x1="0" x2="1" y1="0" y2="1">
      <stop offset="0%" stop-color="#071020"/>
      <stop offset="48%" stop-color="#0f1a3d"/>
      <stop offset="100%" stop-color="#05060a"/>
    </linearGradient>
    <linearGradient id="blueGold" x1="0" x2="1" y1="0" y2="1">
      <stop offset="0%" stop-color="#63d6ff" stop-opacity="0.95"/>
      <stop offset="55%" stop-color="#d4af37" stop-opacity="0.95"/>
      <stop offset="100%" stop-color="#00ff41" stop-opacity="0.72"/>
    </linearGradient>
    <filter id="softShadow" x="-20%" y="-20%" width="140%" height="140%">
      <feDropShadow dx="0" dy="20" stdDeviation="24" flood-color="#000000" flood-opacity="0.45"/>
    </filter>
    <pattern id="grid" width="48" height="48" patternUnits="userSpaceOnUse">
      <path d="M48 0H0V48" fill="none" stroke="#f5f1e8" stroke-opacity="0.08" stroke-width="1"/>
    </pattern>
  </defs>

  <rect width="1024" height="1024" fill="url(#deep)"/>
  <rect width="1024" height="1024" fill="url(#grid)"/>
  
  <circle cx="512" cy="512" r="430" fill="#05060a" stroke="#d4af37" stroke-width="7"/>
  <circle cx="512" cy="512" r="352" fill="none" stroke="#63d6ff" stroke-opacity="0.45" stroke-width="3"/>
  <circle cx="512" cy="512" r="256" fill="url(#goldGlow)"/>
  <g fill="none" stroke-linecap="round" stroke-linejoin="round">
    <path d="M252 520 C360 264 500 292 512 512 C524 732 664 760 772 504" stroke="#d4af37" stroke-width="28"/>
    <path d="M252 504 C360 760 500 732 512 512 C524 292 664 264 772 520" stroke="#63d6ff" stroke-width="18" opacity="0.9"/>
    <path d="M512 150 V874 M150 512 H874" stroke="#f5f1e8" stroke-opacity="0.18" stroke-width="5"/>
    <circle cx="512" cy="512" r="108" stroke="#00ff41" stroke-opacity="0.55" stroke-width="5"/>
  </g>
  <text x="512" y="472" text-anchor="middle" font-family="Georgia, serif" font-size="122" font-weight="900" fill="#f5f1e8">B$S</text>
  <text x="512" y="572" text-anchor="middle" font-family="monospace" font-size="30" fill="#d4af37" letter-spacing="8">MOSS 60</text>
  <text x="512" y="906" text-anchor="middle" font-family="system-ui" font-size="28" fill="#f5f1e8" opacity="0.65" letter-spacing="6">BLUE $NAKE STUDIO</text>

</svg>