<svg xmlns="http://www.w3.org/2000/svg" width="1024" height="1024" viewBox="0 0 1024 1024" role="img" aria-label="Blue Snake Studio artwork">

  <defs>
    <radialGradient id="goldGlow" cx="50%" cy="45%" r="60%">
      <stop offset="0%" stop-color="#fff0a8" stop-opacity="0.75"/>
      <stop offset="35%" stop-color="#d4af37" stop-opacity="0.45"/>
      <stop offset="100%" stop-color="#d4af37" stop-opacity="0"/>
    </radialGradient>
    <linearGradient id="deep" x1="0" x2="1" y1="0" y2="1">
      <stop offset="0%" stop-color="#071020"/>
      <stop offset="48%" stop-color="#0f1a3d"/>
      <stop offset="100%" stop-color="#05060a"/>
    </linearGradient>
    <linearGradient id="blueGold" x1="0" x2="1" y1="0" y2="1">
      <stop offset="0%" stop-color="#63d6ff" stop-opacity="0.95"/>
      <stop offset="55%" stop-color="#d4af37" stop-opacity="0.95"/>
      <stop offset="100%" stop-color="#00ff41" stop-opacity="0.72"/>
    </linearGradient>
    <filter id="softShadow" x="-20%" y="-20%" width="140%" height="140%">
      <feDropShadow dx="0" dy="20" stdDeviation="24" flood-color="#000000" flood-opacity="0.45"/>
    </filter>
    <pattern id="grid" width="48" height="48" patternUnits="userSpaceOnUse">
      <path d="M48 0H0V48" fill="none" stroke="#f5f1e8" stroke-opacity="0.08" stroke-width="1"/>
    </pattern>
  </defs>

  <rect width="1024" height="1024" fill="url(#deep)"/>
  <rect width="1024" height="1024" fill="url(#grid)"/>
  
  <circle cx="512" cy="430" r="280" fill="#63d6ff" opacity="0.12"/>
  <circle cx="512" cy="430" r="205" fill="#05060a" stroke="#d4af37" stroke-width="8"/>
  <circle cx="428" cy="395" r="28" fill="#00ff41"/><circle cx="596" cy="395" r="28" fill="#00ff41"/>
  <path d="M420 500 Q512 572 604 500" fill="none" stroke="#d4af37" stroke-width="14" stroke-linecap="round"/>
  <path d="M325 315 L252 208 M699 315 L772 208" stroke="#d4af37" stroke-width="12" stroke-linecap="round"/>
  <circle cx="252" cy="208" r="25" fill="#d4af37"/><circle cx="772" cy="208" r="25" fill="#63d6ff"/>
  <g stroke="#f5f1e8" stroke-opacity="0.22" fill="none">
    <path d="M512 182V80M512 780V680M250 430H120M904 430H774"/>
    <circle cx="512" cy="430" r="330"/><circle cx="512" cy="430" r="108"/>
  </g>
  <text x="512" y="830" text-anchor="middle" font-family="Georgia, serif" font-size="72" font-weight="900" fill="#f5f1e8">META-PET</text>
  <text x="512" y="878" text-anchor="middle" font-family="monospace" font-size="22" fill="#d4af37" letter-spacing="5">OFFLINE · ZERO DATA · STEAM</text>

</svg>