<svg xmlns="http://www.w3.org/2000/svg" width="1024" height="1024" viewBox="0 0 1024 1024" role="img" aria-label="Blue Snake Studio artwork">

  <defs>
    <radialGradient id="goldGlow" cx="50%" cy="45%" r="60%">
      <stop offset="0%" stop-color="#fff0a8" stop-opacity="0.75"/>
      <stop offset="35%" stop-color="#d4af37" stop-opacity="0.45"/>
      <stop offset="100%" stop-color="#d4af37" stop-opacity="0"/>
    </radialGradient>
    <linearGradient id="deep" x1="0" x2="1" y1="0" y2="1">
      <stop offset="0%" stop-color="#071020"/>
      <stop offset="48%" stop-color="#0f1a3d"/>
      <stop offset="100%" stop-color="#05060a"/>
    </linearGradient>
    <linearGradient id="blueGold" x1="0" x2="1" y1="0" y2="1">
      <stop offset="0%" stop-color="#63d6ff" stop-opacity="0.95"/>
      <stop offset="55%" stop-color="#d4af37" stop-opacity="0.95"/>
      <stop offset="100%" stop-color="#00ff41" stop-opacity="0.72"/>
    </linearGradient>
    <filter id="softShadow" x="-20%" y="-20%" width="140%" height="140%">
      <feDropShadow dx="0" dy="20" stdDeviation="24" flood-color="#000000" flood-opacity="0.45"/>
    </filter>
    <pattern id="grid" width="48" height="48" patternUnits="userSpaceOnUse">
      <path d="M48 0H0V48" fill="none" stroke="#f5f1e8" stroke-opacity="0.08" stroke-width="1"/>
    </pattern>
  </defs>

  <rect width="1024" height="1024" fill="url(#deep)"/>
  <rect width="1024" height="1024" fill="url(#grid)"/>
  
  <circle cx="512" cy="512" r="390" fill="none" stroke="#d4af37" stroke-opacity="0.45" stroke-width="5"/>
  <circle cx="512" cy="512" r="300" fill="none" stroke="#63d6ff" stroke-opacity="0.35" stroke-width="4"/>
  <circle cx="512" cy="512" r="216" fill="none" stroke="#00ff41" stroke-opacity="0.35" stroke-width="3"/>
  <g stroke="#f5f1e8" stroke-opacity="0.25" stroke-width="2">
    <path d="M512 112V912M112 512H912M229 229L795 795M795 229L229 795"/>
  </g>
  <g fill="#d4af37">
    <circle cx="512.0" cy="122.0" r="9" opacity="0.9"/>
    <circle cx="534.6" cy="297.2" r="4" opacity="0.55"/>
    <circle cx="556.9" cy="300.7" r="4" opacity="0.55"/>
    <circle cx="604.7" cy="226.7" r="6" opacity="0.55"/>
    <circle cx="599.9" cy="314.7" r="4" opacity="0.55"/>
    <circle cx="707.0" cy="174.3" r="9" opacity="0.9"/>
    <circle cx="688.3" cy="269.3" r="6" opacity="0.55"/>
    <circle cx="656.5" cy="351.5" r="4" opacity="0.55"/>
    <circle cx="672.5" cy="367.5" r="4" opacity="0.55"/>
    <circle cx="754.7" cy="335.7" r="6" opacity="0.55"/>
    <circle cx="849.7" cy="317.0" r="9" opacity="0.9"/>
    <circle cx="709.3" cy="424.1" r="4" opacity="0.55"/>
    <circle cx="797.3" cy="419.3" r="6" opacity="0.55"/>
    <circle cx="723.3" cy="467.1" r="4" opacity="0.55"/>
    <circle cx="726.8" cy="489.4" r="4" opacity="0.55"/>
    <circle cx="902.0" cy="512.0" r="9" opacity="0.9"/>
    <circle cx="726.8" cy="534.6" r="4" opacity="0.55"/>
    <circle cx="723.3" cy="556.9" r="4" opacity="0.55"/>
    <circle cx="797.3" cy="604.7" r="6" opacity="0.55"/>
    <circle cx="709.3" cy="599.9" r="4" opacity="0.55"/>
    <circle cx="849.7" cy="707.0" r="9" opacity="0.9"/>
    <circle cx="754.7" cy="688.3" r="6" opacity="0.55"/>
    <circle cx="672.5" cy="656.5" r="4" opacity="0.55"/>
    <circle cx="656.5" cy="672.5" r="4" opacity="0.55"/>
    <circle cx="688.3" cy="754.7" r="6" opacity="0.55"/>
    <circle cx="707.0" cy="849.7" r="9" opacity="0.9"/>
    <circle cx="599.9" cy="709.3" r="4" opacity="0.55"/>
    <circle cx="604.7" cy="797.3" r="6" opacity="0.55"/>
    <circle cx="556.9" cy="723.3" r="4" opacity="0.55"/>
    <circle cx="534.6" cy="726.8" r="4" opacity="0.55"/>
    <circle cx="512.0" cy="902.0" r="9" opacity="0.9"/>
    <circle cx="489.4" cy="726.8" r="4" opacity="0.55"/>
    <circle cx="467.1" cy="723.3" r="4" opacity="0.55"/>
    <circle cx="419.3" cy="797.3" r="6" opacity="0.55"/>
    <circle cx="424.1" cy="709.3" r="4" opacity="0.55"/>
    <circle cx="317.0" cy="849.7" r="9" opacity="0.9"/>
    <circle cx="335.7" cy="754.7" r="6" opacity="0.55"/>
    <circle cx="367.5" cy="672.5" r="4" opacity="0.55"/>
    <circle cx="351.5" cy="656.5" r="4" opacity="0.55"/>
    <circle cx="269.3" cy="688.3" r="6" opacity="0.55"/>
    <circle cx="174.3" cy="707.0" r="9" opacity="0.9"/>
    <circle cx="314.7" cy="599.9" r="4" opacity="0.55"/>
    <circle cx="226.7" cy="604.7" r="6" opacity="0.55"/>
    <circle cx="300.7" cy="556.9" r="4" opacity="0.55"/>
    <circle cx="297.2" cy="534.6" r="4" opacity="0.55"/>
    <circle cx="122.0" cy="512.0" r="9" opacity="0.9"/>
    <circle cx="297.2" cy="489.4" r="4" opacity="0.55"/>
    <circle cx="300.7" cy="467.1" r="4" opacity="0.55"/>
    <circle cx="226.7" cy="419.3" r="6" opacity="0.55"/>
    <circle cx="314.7" cy="424.1" r="4" opacity="0.55"/>
    <circle cx="174.3" cy="317.0" r="9" opacity="0.9"/>
    <circle cx="269.3" cy="335.7" r="6" opacity="0.55"/>
    <circle cx="351.5" cy="367.5" r="4" opacity="0.55"/>
    <circle cx="367.5" cy="351.5" r="4" opacity="0.55"/>
    <circle cx="335.7" cy="269.3" r="6" opacity="0.55"/>
    <circle cx="317.0" cy="174.3" r="9" opacity="0.9"/>
    <circle cx="424.1" cy="314.7" r="4" opacity="0.55"/>
    <circle cx="419.3" cy="226.7" r="6" opacity="0.55"/>
    <circle cx="467.1" cy="300.7" r="4" opacity="0.55"/>
    <circle cx="489.4" cy="297.2" r="4" opacity="0.55"/>

  </g>
  <text x="512" y="476" text-anchor="middle" font-family="Georgia, serif" font-size="118" font-weight="900" fill="#f5f1e8">60</text>
  <text x="512" y="548" text-anchor="middle" font-family="monospace" font-size="28" fill="#d4af37" letter-spacing="7">MOSS LOGIC</text>
  <text x="512" y="616" text-anchor="middle" font-family="monospace" font-size="18" fill="#f5f1e8" opacity="0.7" letter-spacing="5">108 · 360 · VISUAL MATHS · DIGITAL DNA</text>

</svg>